<?xml version="1.0" encoding="utf-8"?>
<!-- Generator: Adobe Illustrator 18.0.0, SVG Export Plug-In . SVG Version: 6.00 Build 0)  -->
<!DOCTYPE svg PUBLIC "-//W3C//DTD SVG 1.1//EN" "http://www.w3.org/Graphics/SVG/1.1/DTD/svg11.dtd">
<svg version="1.1" id="Слой_1" xmlns="http://www.w3.org/2000/svg" xmlns:xlink="http://www.w3.org/1999/xlink" x="0px" y="0px"
	 viewBox="0 328.5 595.3 184.7" enable-background="new 0 328.5 595.3 184.7" xml:space="preserve">
<title>logo-scroll-new-gg</title>
<path fill="#FFFFFF" d="M214,487.5c2.4-3.8,5.3-6.1,10.1-6.1c4.4,0,7.5,2.2,8.6,5.9c1.9-3.8,5.8-6,10.1-5.9c5.1,0,9.7,2.8,9.7,9.5
	v21.6h-3.7v-20.6c0-4.7-2.4-7.2-7-7.2c-5.5,0-8.4,3.7-8.4,9.2v18.5h-3.6v-20.3c0-4.5-1.8-7.5-6.6-7.5c-6.2,0-8.8,4.7-8.8,10.6v17.2
	h-3.7v-30.2h3.5L214,487.5L214,487.5z"/>
<path fill="#FFFFFF" d="M274.4,513.4c-8.4,0-13.9-6.2-13.9-15.7c0-9.6,5.7-16.3,13.8-16.3c8.9,0,13.3,7.4,13.3,15.7v1.1h-23.3
	c0,6.3,2.9,12.2,10.2,12.2c4.8,0,8-2.7,9.2-7.9h3.6C286.1,509.1,281.5,513.4,274.4,513.4z M274.2,484.4c-6.6,0-9.2,5.1-9.9,10.7
	h19.6C283.5,488.4,279.9,484.4,274.2,484.4z"/>
<path fill="#FFFFFF" d="M322,512.4h-3.4v-5.9c-1.8,4.5-5.9,6.8-10.9,6.8c-8.3,0-13.6-6.2-13.6-16c0-9.8,5.3-16,13.5-16
	c4.8,0,8.8,2.1,10.7,6.5v-17.3h3.6L322,512.4L322,512.4z M297.9,497.3c0,8,4,13,10.3,13c6.3,0,10.4-4.9,10.4-13
	c0-6.5-3-12.9-10.5-12.9C301.9,484.4,297.9,489.4,297.9,497.3L297.9,497.3z"/>
<path fill="#FFFFFF" d="M335.5,476.4h-3.7v-6h3.7V476.4z M335.5,512.3h-3.7v-30.2h3.7V512.3z"/>
<path fill="#FFFFFF" d="M371.6,512.2c-0.9,0.3-1.9,0.5-2.9,0.5c-3.6,0-3.9-2.8-3.9-5.5c-2.4,3.9-6.8,6.3-11.4,6
	c-6.2,0-9.9-3.2-9.9-8.5c0-5.5,3.8-8.6,11.2-9.3c4.8-0.5,7.3-0.6,8.8-1.6c0.9-0.7,1.3-1.8,1.1-2.9c0-5-3-6.5-7.9-6.5
	c-5.1,0-7.8,2.2-8.2,7.1h-3.5c0.3-6.5,4.7-10.2,12.2-10.2c6.8,0,11.1,3,11.1,8.7v16.5c0,1.8,0,3,2,3c0.5,0,0.9,0,1.4-0.2
	L371.6,512.2L371.6,512.2z M356.3,498.1c-3.8,0.5-9.1,1.4-9.1,6.4c0,3.5,2.7,5.8,6.9,5.8c5.5,0,10.3-3.5,10.3-9.3V496
	C363.4,497.2,360.4,497.5,356.3,498.1L356.3,498.1z"/>
<path fill="#FFFFFF" d="M210.5,447.7l5.9-8.8c10.1,6.4,21.9,9.7,33.9,9.6c7.4,0,12.5-1,15.5-3c2.9-2,4.4-4.3,4.4-6.9
	c0-2.6-1.1-5-3-6.7c-2-1.8-5.7-3.4-10.9-4.9l-22.9-6.5c-5.6-1.5-10.9-4.3-15.4-8c-4-3.5-6.2-8.7-6-14.1c0-10.3,6.8-17.1,20.4-20.3
	c6-1.3,12.1-1.9,18.2-1.7c7.2,0,14.3,1.1,21.1,3.3c5.7,1.8,11.2,4.4,16.1,7.8l-5.9,8.8c-4.3-2.7-8.9-4.9-13.7-6.7
	c-5.5-2-11.3-3-17.1-2.9c-6.3,0-10.7,0.8-13.3,2.5c-2.2,1.2-3.7,3.5-3.8,6c0,5,4.4,8.7,13.2,11.2l22.8,6.7c14.7,4.3,22,11.7,22,22.1
	c0,15.7-14,23.6-42,23.6c-11.1,0.1-22.2-2.2-32.3-6.8C215.3,450.8,212.9,449.3,210.5,447.7z"/>
<path fill="#FFFFFF" d="M295.9,417.6c0-13,4.2-23.2,12.5-30.6c8.1-7,18.9-10.6,32.4-10.6c9.2-0.2,18.4,2,26.5,6.3
	c2.4,1.3,4.6,2.8,6.6,4.5l-5.9,8.8c-8.6-6.4-17.2-9.6-25.8-9.6c-11.4,0-18.9,5.6-22.4,16.8c-1.4,4.6-2,9.5-1.9,14.3
	c0,15.8,5.1,25.5,15.3,29.2c3.4,1.2,7,1.8,10.6,1.7c8.7,0,17.3-3.2,25.7-9.6l5.9,8.8c-5.6,5-13.5,8.5-23.7,10.3
	c-4.1,0.6-8.2,0.9-12.3,0.8c-5.5-0.1-11-1-16.2-2.7c-5.4-1.6-10.4-4.3-14.7-8C300.1,440.9,295.9,430.7,295.9,417.6z"/>
<path fill="#FFFFFF" d="M382,455.9v-44.9c0-10.1,3.2-17.8,9.5-23.3c6.3-5.5,15.4-8.3,27.3-8.3h22.1v10.3h-17.6
	c-6.7,0-11.8,1.8-15.3,5.4c-3.5,3.6-5.3,8.9-5.3,16v44.9H382z"/>
<path fill="#FFFFFF" d="M441.5,417.6c0-13,4.2-23.2,12.5-30.6c8.1-7,18.8-10.6,32.3-10.6c6.2-0.1,12.3,0.9,18.2,2.7
	c5.2,1.6,10,4.3,14.1,7.8c8.3,7.4,12.5,17.6,12.5,30.6c0,13-4.2,23.2-12.5,30.5c-8.1,7.1-18.8,10.7-32.3,10.7s-24.3-3.6-32.4-10.7
	C445.7,440.8,441.5,430.6,441.5,417.6z M463.6,417.6c0,10.7,2.3,18.8,6.8,24.3c3.9,4.8,9.8,7.5,16,7.3c10.5,0,17.5-5.7,20.9-17.1
	c1.3-4.7,2-9.6,1.9-14.5c0-10.8-2.2-18.9-6.7-24.4c-3.9-4.8-9.8-7.5-16-7.3c-10.4,0-17.4,5.7-21,17.1
	C464.1,407.7,463.5,412.7,463.6,417.6z"/>
<path fill="#FFFFFF" d="M540.8,455.9V328.5h20.6v127.3L540.8,455.9L540.8,455.9z"/>
<path fill="#FFFFFF" d="M574.6,455.9V328.5h20.7v127.3L574.6,455.9L574.6,455.9z"/>
<path fill="#FFFFFF" d="M90.3,330.7c-49.8,0-90.2,40.4-90.3,90.3c0,49.9,40.5,90.3,90.3,90.3c49.9,0,90.3-40.5,90.3-90.3
	C180.6,371.1,140.2,330.7,90.3,330.7z M134.1,491.8c-2,1.3-4.2,2.4-6.6,3.2c-5.2-2.3-10.6-4.2-16.2-5.6l-53.9-15.8
	c-14.9-4.4-27-10.7-36.4-19S6.9,435.2,6.9,421.2c-0.1-7,1.4-13.9,4.5-20.2c2.3,4.7,5.6,8.9,9.5,12.4c9.4,8.2,21.6,14.6,36.4,19
	l53.9,15.8c12.4,3.4,21,7.2,25.9,11.6c4.7,3.9,7.3,9.7,7.3,15.7C144.6,481.7,141.1,487.1,134.1,491.8L134.1,491.8z M121.4,408.7
	l-54.1-15.8c-20.9-6-31.4-14.9-31.3-26.6c0-5.7,3-10.5,9.1-14.4c3.3-2,7-3.4,10.9-4.1c3.7,1.6,7.6,2.9,11.5,4l54.1,15.8
	c34.8,10.2,52.3,27.6,52.2,52.3c0.1,7.3-1.4,14.5-4.5,21.1C161.9,426.7,146,415.9,121.4,408.7L121.4,408.7z"/>
</svg>
