<?xml version="1.0" encoding="iso-8859-1"?>
<!-- Generator: Adobe Illustrator 18.0.0, SVG Export Plug-In . SVG Version: 6.00 Build 0)  -->
<!DOCTYPE svg PUBLIC "-//W3C//DTD SVG 1.1//EN" "http://www.w3.org/Graphics/SVG/1.1/DTD/svg11.dtd">
<svg version="1.1" id="&#x421;&#x43B;&#x43E;&#x439;_1"
	 xmlns="http://www.w3.org/2000/svg" xmlns:xlink="http://www.w3.org/1999/xlink" x="0px" y="0px" viewBox="0 0 228 250.227"
	 style="enable-background:new 0 0 228 250.227;" xml:space="preserve">
<g>
	<path style="fill:#E2574C;" d="M22.465,1.754h131.383l69.64,69.368v162.582c0,8.543-6.929,15.464-15.465,15.464H22.465
		C13.926,249.168,7,242.247,7,233.704V17.218C7,8.675,13.93,1.754,22.465,1.754L22.465,1.754z M22.465,1.754"/>
	<path style="fill:#B53629;" d="M223.262,71.34h-53.895c-8.539,0-15.465-6.929-15.465-15.465V1.911L223.262,71.34z M223.262,71.34"
		/>
	<path style="fill:#FFFFFF;" d="M165.484,118.989c2.59,0,3.86-2.258,3.86-4.446c0-2.265-1.324-4.453-3.86-4.453H150.73
		c-2.882,0-4.492,2.391-4.492,5.028v36.25c0,3.234,1.84,5.027,4.332,5.027c2.473,0,4.321-1.793,4.321-5.027v-9.95h8.921
		c2.77,0,4.153-2.265,4.153-4.515c0-2.203-1.383-4.391-4.153-4.391h-8.921v-13.523H165.484z M115.621,110.089h-10.793
		c-2.93,0-5.008,2.012-5.008,4.996v36.313c0,3.703,2.989,4.863,5.133,4.863h11.324c13.411,0,22.262-8.82,22.262-22.437
		C138.531,119.43,130.195,110.089,115.621,110.089L115.621,110.089z M116.141,147.312h-6.579v-28.27h5.93
		c8.977,0,12.879,6.024,12.879,14.336C128.371,141.156,124.535,147.312,116.141,147.312L116.141,147.312z M76.602,110.089H65.906
		c-3.019,0-4.707,1.996-4.707,5.028v36.25c0,3.234,1.934,5.027,4.531,5.027c2.598,0,4.532-1.793,4.532-5.027v-10.582h6.703
		c8.269,0,15.097-5.864,15.097-15.286C92.062,116.278,85.477,110.089,76.602,110.089L76.602,110.089z M76.422,132.282h-6.16v-13.68
		h6.16c3.805,0,6.226,2.969,6.226,6.844C82.641,129.312,80.227,132.282,76.422,132.282L76.422,132.282z M76.422,132.282"/>
</g>
</svg>
