<svg xmlns="http://www.w3.org/2000/svg" viewBox="0 0 94 94"><defs><style>.cls-1{fill:#3f3f3f;}.cls-2{fill:#fff;}</style></defs><title>cena</title><g id="Слой_2" data-name="Слой 2"><g id="Слой_1-2" data-name="Слой 1"><circle class="cls-1" cx="47" cy="47" r="47"/><path class="cls-2" d="M42.84,48.71a5.33,5.33,0,1,0-7.54,0A5.34,5.34,0,0,0,42.84,48.71Zm-5-5a1.78,1.78,0,1,1,0,2.51A1.78,1.78,0,0,1,37.81,43.69Z"/><path class="cls-2" d="M37.81,58.77a5.33,5.33,0,0,0,7.54,7.54h0a5.33,5.33,0,0,0-7.54-7.54Zm5,5a1.78,1.78,0,1,1,0-2.51A1.78,1.78,0,0,1,42.84,63.8Z"/><path class="cls-2" d="M51.44,50.72,28.81,53.23a1.78,1.78,0,0,0,.39,3.53l22.63-2.51a1.78,1.78,0,1,0-.39-3.53Z"/><path class="cls-2" d="M74.08,20a1.78,1.78,0,0,0-2.51,0l-4.91,4.92a12.48,12.48,0,0,0-14.92,0L48.12,21.3a5.34,5.34,0,0,0-7.54,0L15.43,46.45a5.34,5.34,0,0,0,0,7.54l4.4,4.4A12.38,12.38,0,0,0,35.67,74.24l4.4,4.4a5.33,5.33,0,0,0,7.54,0L72.76,53.49a5.34,5.34,0,0,0,0-7.54l-3.61-3.61a12.48,12.48,0,0,0,0-14.9l4.92-4.93A1.78,1.78,0,0,0,74.08,20ZM65.47,41.17a1.78,1.78,0,0,0,0,2.51l4.78,4.78a1.78,1.78,0,0,1,0,2.51l-4.09,4.09a1.77,1.77,0,0,0-.52-1.16l-2.51-2.51a1.78,1.78,0,0,0-2.51,2.51l2.51,2.51a1.77,1.77,0,0,0,1.16.52L45.1,76.13a1.78,1.78,0,0,1-2.51,0l-5.24-5.24a1.78,1.78,0,0,0-2-.35,8.83,8.83,0,0,1-11.79-11.8,1.78,1.78,0,0,0-.35-2l-5.24-5.24a1.78,1.78,0,0,1,0-2.51L37.61,29.3a1.78,1.78,0,0,0,.37,2l2.51,2.51A1.78,1.78,0,0,0,43,31.27l-2.51-2.51a1.78,1.78,0,0,0-2-.37l4.57-4.57a1.78,1.78,0,0,1,2.51,0l4.78,4.78a1.78,1.78,0,0,0,2.51,0A8.89,8.89,0,0,1,64.1,27.48l-2.59,2.59A5.33,5.33,0,1,0,63,38.66h0a5.34,5.34,0,0,0,1-6.07L66.61,30A8.89,8.89,0,0,1,65.47,41.17Zm-5-7.54a1.78,1.78,0,1,1-2.51,0A1.78,1.78,0,0,1,60.48,33.63Z"/><path class="cls-2" d="M48,41.33a1.78,1.78,0,0,0,2.51-2.51L48,36.3a1.78,1.78,0,0,0-2.51,2.51Z"/><path class="cls-2" d="M55.58,43.85a1.78,1.78,0,0,0-2.51,2.51l2.51,2.51a1.78,1.78,0,0,0,2.51-2.51Z"/></g></g></svg>