<svg xmlns="http://www.w3.org/2000/svg" viewBox="0 0 94 94"><defs><style>.cls-1{fill:#3f3f3f;}.cls-2{fill:#fff;}</style></defs><title>dostavka</title><g id="Слой_2" data-name="Слой 2"><g id="Слой_1-2" data-name="Слой 1"><circle class="cls-1" cx="47" cy="47" r="47"/><path class="cls-2" d="M59.82,61.06a6.45,6.45,0,0,0,12.64,0H79a1.29,1.29,0,0,0,1.29-1.29V47.27a1.29,1.29,0,0,0-.64-1.11L76,44l-2.13-9.11a5.31,5.31,0,0,0-5.19-4.12H57.92v-1.7a1.29,1.29,0,0,0-1.29-1.29H17a1.29,1.29,0,0,0-1.29,1.29V59.77A1.29,1.29,0,0,0,17,61.06h4.14a6.45,6.45,0,0,0,12.64,0H59.82Zm11.5-25.59,1.89,8.07H65.39V33.34h3.25A2.74,2.74,0,0,1,71.32,35.47ZM18.24,30.35h37.1V49.24H18.24Zm0,21.47h37.1v2H43.72a1.29,1.29,0,1,0,0,2.58H55.34v2H33.74a6.45,6.45,0,0,0-12.64,0H18.24Zm9.17,11.83a3.87,3.87,0,1,1,3.87-3.87A3.88,3.88,0,0,1,27.42,63.65Zm38.72,0A3.88,3.88,0,0,1,62.27,60a1.3,1.3,0,0,0,0-.52,3.87,3.87,0,1,1,3.87,4.13Zm-8.22-30.3h4.9V44.83a1.29,1.29,0,0,0,1.29,1.29H74.49L77.76,48v.42H74a1.29,1.29,0,0,0-1.29,1.29v3.94A1.29,1.29,0,0,0,74,54.95h3.74v3.54h-5.3a6.45,6.45,0,0,0-12.64,0h-1.9Zm19.84,19H75.31V51h2.45Z"/><path class="cls-2" d="M38.29,56.44h1.09a1.29,1.29,0,0,0,0-2.58H38.29a1.29,1.29,0,0,0,0,2.58Z"/></g></g></svg>