<svg xmlns="http://www.w3.org/2000/svg" viewBox="0 0 94 94"><defs><style>.cls-1{fill:#3f3f3f;}.cls-2{fill:#fff;}</style></defs><title>klient</title><g id="Слой_2" data-name="Слой 2"><g id="Слой_1-2" data-name="Слой 1"><circle class="cls-1" cx="47" cy="47" r="47"/><circle class="cls-2" cx="29.71" cy="61.77" r="2.05"/><path class="cls-2" d="M76.12,50.7A4.78,4.78,0,0,0,75.28,48a4.81,4.81,0,0,0-2.74-8.77H59.89l.8-1.8a20.35,20.35,0,0,0,1.77-8.29s0-3.51,0-3.53a4.95,4.95,0,0,0-9.53-1.85c0,.08-1.18,3.47-1.18,3.47A17.52,17.52,0,0,1,46.43,35l-5.87,4.91H37.17V38.31a3,3,0,0,0-3-3H19.6a3,3,0,0,0-3,3V67.07a3,3,0,0,0,3,3H34.22a3,3,0,0,0,3-3V64.76H39l1.84.89a32.44,32.44,0,0,0,14,3.21h14a4.81,4.81,0,0,0,4-7.53A4.8,4.8,0,0,0,74,54.66,4.81,4.81,0,0,0,76.12,50.7ZM34.22,67.07H19.6V38.31H34.22V67.07Zm34.63-1.16h-14A29.47,29.47,0,0,1,42.15,63L40,62a1.48,1.48,0,0,0-.64-.15H37.17v-19H41.1a1.48,1.48,0,0,0,.95-.34l6.28-5.25a20.47,20.47,0,0,0,6.22-9l1.18-3.44a2,2,0,0,1,3.8.86s0,3.52,0,3.52A17.41,17.41,0,0,1,58,36.22l-1.72,3.85a1.47,1.47,0,0,0-.06,1,1.52,1.52,0,0,0,1.42,1.07H72.54a1.86,1.86,0,0,1,0,3.72h-2.1a1.48,1.48,0,0,0,0,3h.87a1.86,1.86,0,1,1,0,3.72h-2.1a1.48,1.48,0,0,0,0,3h.87a1.86,1.86,0,1,1,0,3.72H68a1.48,1.48,0,0,0,0,3h.87a1.86,1.86,0,1,1,0,3.72Z"/></g></g></svg>