<svg xmlns="http://www.w3.org/2000/svg" viewBox="0 0 94 94"><defs><style>.cls-1{fill:#3f3f3f;}.cls-2{fill:#fff;}</style></defs><title>vybor</title><g id="Слой_2" data-name="Слой 2"><g id="Слой_1-2" data-name="Слой 1"><circle class="cls-1" cx="47" cy="47" r="47"/><path class="cls-2" d="M73.51,33.75,47.63,16.19a1.11,1.11,0,0,0-1.25,0L20.49,33.75a1.12,1.12,0,0,0-.49.92V70.73a1.12,1.12,0,0,0,1.12,1.12H72.88A1.12,1.12,0,0,0,74,70.73V34.67A1.12,1.12,0,0,0,73.51,33.75Zm-9.14,3v1.46H29.63V36.71ZM63.64,50.2a1.12,1.12,0,0,0-1.12,1.12v18.3H53.66v-10a1.12,1.12,0,0,0-1.12-1.12h-10v-10a1.12,1.12,0,0,0-1.12-1.12h-10v-7h31v7.2a1.12,1.12,0,0,0,2.23,0v-7.2h.73A1.12,1.12,0,0,0,66.6,39.3V35.6a1.12,1.12,0,0,0-1.12-1.12h-37A1.12,1.12,0,0,0,27.4,35.6v3.7a1.12,1.12,0,0,0,1.12,1.12h.73v29.2h-7V35.27L47,18.46,71.77,35.27V69.61h-7V51.31A1.12,1.12,0,0,0,63.64,50.2ZM35.18,53V49.66h1.46V53ZM34.06,55.2h3.7a1.12,1.12,0,0,0,1.12-1.12V49.66h1.46v8.86H31.48V49.66h1.46v4.43A1.12,1.12,0,0,0,34.06,55.2Zm1.12,8.86V60.75h1.46v3.31ZM34.06,66.3h3.7a1.12,1.12,0,0,0,1.12-1.12V60.75h1.46v8.86H31.48V60.75h1.46v4.43A1.12,1.12,0,0,0,34.06,66.3Zm12.21-2.23V60.75h1.46v3.31ZM45.15,66.3h3.7A1.12,1.12,0,0,0,50,65.18V60.75h1.46v8.86H42.57V60.75H44v4.43A1.12,1.12,0,0,0,45.15,66.3Z"/></g></g></svg>